<svg xmlns="http://www.w3.org/2000/svg" width="53.682" height="43.751" viewBox="0 0 53.682 43.751"><defs><style>.a{fill:#f5989d;}</style></defs><g transform="translate(0 0)"><g transform="translate(0 0)"><path class="a" d="M53.416,18.084a1.441,1.441,0,0,0,.259-1.219,1.426,1.426,0,0,0-.787-.961,11.8,11.8,0,0,0-2.123-.753,11.63,11.63,0,0,0-4.56-.224h0a11.765,11.765,0,0,0-6.519-5.245,11.976,11.976,0,0,0-3.434-5.228,1.548,1.548,0,0,0-2.381.382,12.086,12.086,0,0,0-1.511,4.871h0a13.285,13.285,0,0,0-2.211.647s-4.307,1.93-.925,1.873A10.039,10.039,0,0,0,28.2,15.082c-.086.347-.156.7-.206,1.048h-.006a19.364,19.364,0,0,0-10.977-5.478,19.149,19.149,0,0,0-2.88-.191h0a0,0,0,0,1,0,0q.058-.3.132-.6A11.827,11.827,0,0,1,25.5.8a.2.2,0,0,0,.049-.4L25.53.4a11.707,11.707,0,0,0-9.624,1.822,11.944,11.944,0,0,0-4.951,8.532l0,0a19.246,19.246,0,0,0-4.885,1.568.173.173,0,0,0-.087.212.171.171,0,0,0,.2.112,19.126,19.126,0,0,1,4.71-.512,0,0,0,0,1,0,0,11.911,11.911,0,0,0,.862,4.294,0,0,0,0,1,0,0h0q-.387-.113-.784-.214a19.148,19.148,0,0,0-10.81.425h0a.462.462,0,0,0-.076.52.453.453,0,0,0,.457.251A19.352,19.352,0,0,1,16.16,22.919q.372.368.722.755A19.744,19.744,0,0,1,21.423,41.66c-.035.139-.069.283-.109.423a1.225,1.225,0,0,0,.116.926,1.2,1.2,0,0,0,.732.569q.123.035.247.064h.013a1.588,1.588,0,0,0,1.854-.957,19.947,19.947,0,0,0,.87-2.705,19.878,19.878,0,0,0,.554-3.847,0,0,0,0,1,0,0,11.515,11.515,0,0,0,3.794.088h0a0,0,0,0,1,0,0c-.019.083-.039.164-.059.246a19.658,19.658,0,0,1-2.753,6.264.69.69,0,0,0-.01.758.675.675,0,0,0,.688.3c.264-.049.527-.108.787-.175a1.024,1.024,0,0,0,.5-.307A19.565,19.565,0,0,0,33.1,35.093c.025-.1.05-.2.075-.3a19.881,19.881,0,0,0,.4-2.138,19.594,19.594,0,0,0,.086-4.439s0-.006.006,0A11.6,11.6,0,0,0,36.43,29.4c.123.035.247.069.372.1a12.367,12.367,0,0,0,8.836-.73L44.807,27.7c2.362,1.641,1.483,1.258,2.706-3.82a12.512,12.512,0,0,0,.3-1.815.007.007,0,0,1,0,0A11.832,11.832,0,0,0,53.416,18.084Z" transform="translate(-0.033 -0.053)"/></g></g></svg>